<svg xmlns="http://www.w3.org/2000/svg" xmlns:svgjs="http://svgjs.com/svgjs" xmlns:xlink="http://www.w3.org/1999/xlink" id="SvgjsSvg1684" width="944.719" height="1441.25" version="1.1"><defs id="SvgjsDefs1685"><marker id="SvgjsMarker1699" markerHeight="12" markerUnits="userSpaceOnUse" markerWidth="16" orient="auto" refX="16" refY="6" viewBox="0 0 16 12"><path id="SvgjsPath1700" fill="#323232" stroke="#323232" stroke-width="2" d="M0,2 L14,6 L0,11 L0,2"/></marker><marker id="SvgjsMarker1711" markerHeight="12" markerUnits="userSpaceOnUse" markerWidth="16" orient="auto" refX="16" refY="6" viewBox="0 0 16 12"><path id="SvgjsPath1712" fill="#323232" stroke="#323232" stroke-width="2" d="M0,2 L14,6 L0,11 L0,2"/></marker><marker id="SvgjsMarker1745" markerHeight="12" markerUnits="userSpaceOnUse" markerWidth="16" orient="auto" refX="16" refY="6" viewBox="0 0 16 12"><path id="SvgjsPath1746" fill="#323232" stroke="#323232" stroke-width="2" d="M0,2 L14,6 L0,11 L0,2"/></marker><marker id="SvgjsMarker1755" markerHeight="12" markerUnits="userSpaceOnUse" markerWidth="16" orient="auto" refX="16" refY="6" viewBox="0 0 16 12"><path id="SvgjsPath1756" fill="#323232" stroke="#323232" stroke-width="2" d="M0,2 L14,6 L0,11 L0,2"/></marker><marker id="SvgjsMarker1767" markerHeight="12" markerUnits="userSpaceOnUse" markerWidth="16" orient="auto" refX="16" refY="6" viewBox="0 0 16 12"><path id="SvgjsPath1768" fill="#323232" stroke="#323232" stroke-width="2" d="M0,2 L14,6 L0,11 L0,2"/></marker><marker id="SvgjsMarker1779" markerHeight="12" markerUnits="userSpaceOnUse" markerWidth="16" orient="auto" refX="16" refY="6" viewBox="0 0 16 12"><path id="SvgjsPath1780" fill="#323232" stroke="#323232" stroke-width="2" d="M0,2 L14,6 L0,11 L0,2"/></marker><marker id="SvgjsMarker1789" markerHeight="12" markerUnits="userSpaceOnUse" markerWidth="16" orient="auto" refX="16" refY="6" viewBox="0 0 16 12"><path id="SvgjsPath1790" fill="#323232" stroke="#323232" stroke-width="2" d="M0,2 L14,6 L0,11 L0,2"/></marker><marker id="SvgjsMarker1793" markerHeight="12" markerUnits="userSpaceOnUse" markerWidth="16" orient="auto" refX="16" refY="6" viewBox="0 0 16 12"><path id="SvgjsPath1794" fill="#323232" stroke="#323232" stroke-width="2" d="M0,2 L14,6 L0,11 L0,2"/></marker><marker id="SvgjsMarker1797" markerHeight="12" markerUnits="userSpaceOnUse" markerWidth="16" orient="auto" refX="16" refY="6" viewBox="0 0 16 12"><path id="SvgjsPath1798" fill="#323232" stroke="#323232" stroke-width="2" d="M0,2 L14,6 L0,11 L0,2"/></marker><marker id="SvgjsMarker1805" markerHeight="12" markerUnits="userSpaceOnUse" markerWidth="16" orient="auto" refX="16" refY="6" viewBox="0 0 16 12"><path id="SvgjsPath1806" fill="#323232" stroke="#323232" stroke-width="2" d="M0,2 L14,6 L0,11 L0,2"/></marker><marker id="SvgjsMarker1821" markerHeight="12" markerUnits="userSpaceOnUse" markerWidth="16" orient="auto" refX="16" refY="6" viewBox="0 0 16 12"><path id="SvgjsPath1822" fill="#323232" stroke="#323232" stroke-width="2" d="M0,2 L14,6 L0,11 L0,2"/></marker><marker id="SvgjsMarker1825" markerHeight="12" markerUnits="userSpaceOnUse" markerWidth="16" orient="auto" refX="16" refY="6" viewBox="0 0 16 12"><path id="SvgjsPath1826" fill="#323232" stroke="#323232" stroke-width="2" d="M0,2 L14,6 L0,11 L0,2"/></marker><marker id="SvgjsMarker1835" markerHeight="12" markerUnits="userSpaceOnUse" markerWidth="16" orient="auto" refX="16" refY="6" viewBox="0 0 16 12"><path id="SvgjsPath1836" fill="#323232" stroke="#323232" stroke-width="2" d="M0,2 L14,6 L0,11 L0,2"/></marker><marker id="SvgjsMarker1839" markerHeight="12" markerUnits="userSpaceOnUse" markerWidth="16" orient="auto" refX="16" refY="6" viewBox="0 0 16 12"><path id="SvgjsPath1840" fill="#323232" stroke="#323232" stroke-width="2" d="M0,2 L14,6 L0,11 L0,2"/></marker><marker id="SvgjsMarker1843" markerHeight="12" markerUnits="userSpaceOnUse" markerWidth="16" orient="auto" refX="16" refY="6" viewBox="0 0 16 12"><path id="SvgjsPath1844" fill="#323232" stroke="#323232" stroke-width="2" d="M0,2 L14,6 L0,11 L0,2"/></marker><marker id="SvgjsMarker1853" markerHeight="12" markerUnits="userSpaceOnUse" markerWidth="16" orient="auto" refX="16" refY="6" viewBox="0 0 16 12"><path id="SvgjsPath1854" fill="#323232" stroke="#323232" stroke-width="2" d="M0,2 L14,6 L0,11 L0,2"/></marker><marker id="SvgjsMarker1867" markerHeight="12" markerUnits="userSpaceOnUse" markerWidth="16" orient="auto" refX="16" refY="6" viewBox="0 0 16 12"><path id="SvgjsPath1868" fill="#323232" stroke="#323232" stroke-width="2" d="M0,2 L14,6 L0,11 L0,2"/></marker><marker id="SvgjsMarker1883" markerHeight="12" markerUnits="userSpaceOnUse" markerWidth="16" orient="auto" refX="16" refY="6" viewBox="0 0 16 12"><path id="SvgjsPath1884" fill="#323232" stroke="#323232" stroke-width="2" d="M0,2 L14,6 L0,11 L0,2"/></marker><marker id="SvgjsMarker1893" markerHeight="12" markerUnits="userSpaceOnUse" markerWidth="16" orient="auto" refX="16" refY="6" viewBox="0 0 16 12"><path id="SvgjsPath1894" fill="#323232" stroke="#323232" stroke-width="2" d="M0,2 L14,6 L0,11 L0,2"/></marker><marker id="SvgjsMarker1903" markerHeight="12" markerUnits="userSpaceOnUse" markerWidth="16" orient="auto" refX="16" refY="6" viewBox="0 0 16 12"><path id="SvgjsPath1904" fill="#323232" stroke="#323232" stroke-width="2" d="M0,2 L14,6 L0,11 L0,2"/></marker><marker id="SvgjsMarker1911" markerHeight="12" markerUnits="userSpaceOnUse" markerWidth="16" orient="auto" refX="16" refY="6" viewBox="0 0 16 12"><path id="SvgjsPath1912" fill="#323232" stroke="#323232" stroke-width="2" d="M0,2 L14,6 L0,11 L0,2"/></marker><marker id="SvgjsMarker1921" markerHeight="12" markerUnits="userSpaceOnUse" markerWidth="16" orient="auto" refX="16" refY="6" viewBox="0 0 16 12"><path id="SvgjsPath1922" fill="#323232" stroke="#323232" stroke-width="2" d="M0,2 L14,6 L0,11 L0,2"/></marker><marker id="SvgjsMarker1931" markerHeight="12" markerUnits="userSpaceOnUse" markerWidth="16" orient="auto" refX="16" refY="6" viewBox="0 0 16 12"><path id="SvgjsPath1932" fill="#323232" stroke="#323232" stroke-width="2" d="M0,2 L14,6 L0,11 L0,2"/></marker><marker id="SvgjsMarker1941" markerHeight="12" markerUnits="userSpaceOnUse" markerWidth="16" orient="auto" refX="16" refY="6" viewBox="0 0 16 12"><path id="SvgjsPath1942" fill="#323232" stroke="#323232" stroke-width="2" d="M0,2 L14,6 L0,11 L0,2"/></marker><marker id="SvgjsMarker1951" markerHeight="12" markerUnits="userSpaceOnUse" markerWidth="16" orient="auto" refX="16" refY="6" viewBox="0 0 16 12"><path id="SvgjsPath1952" fill="#323232" stroke="#323232" stroke-width="2" d="M0,2 L14,6 L0,11 L0,2"/></marker><marker id="SvgjsMarker1959" markerHeight="12" markerUnits="userSpaceOnUse" markerWidth="16" orient="auto" refX="16" refY="6" viewBox="0 0 16 12"><path id="SvgjsPath1960" fill="#323232" stroke="#323232" stroke-width="2" d="M0,2 L14,6 L0,11 L0,2"/></marker><marker id="SvgjsMarker1973" markerHeight="12" markerUnits="userSpaceOnUse" markerWidth="16" orient="auto" refX="16" refY="6" viewBox="0 0 16 12"><path id="SvgjsPath1974" fill="#00f" stroke="#00f" stroke-width="2" d="M0,2 L14,6 L0,11 L0,2"/></marker><marker id="SvgjsMarker1977" markerHeight="12" markerUnits="userSpaceOnUse" markerWidth="16" orient="auto" refX="16" refY="6" viewBox="0 0 16 12"><path id="SvgjsPath1978" fill="#00f" stroke="#00f" stroke-width="2" d="M0,2 L14,6 L0,11 L0,2"/></marker><marker id="SvgjsMarker1981" markerHeight="12" markerUnits="userSpaceOnUse" markerWidth="16" orient="auto" refX="16" refY="6" viewBox="0 0 16 12"><path id="SvgjsPath1982" fill="#323232" stroke="#323232" stroke-width="2" d="M0,2 L14,6 L0,11 L0,2"/></marker><pattern id="SvgjsPattern2013" width="140.017" height="140.017" x="0" y="0" patternUnits="userSpaceOnUse"><image id="SvgjsImage2014" width="140.017" height="140.017" x="0" y="0" crossOrigin="anonymous" preserveAspectRatio="none" xlink:href="https://github.com/HeiSir2014/M3U8-Downloader/raw/master/resource/5ef1b6d96376891e81e175ba.png"/></pattern><marker id="SvgjsMarker2017" markerHeight="12" markerUnits="userSpaceOnUse" markerWidth="16" orient="auto" refX="16" refY="6" viewBox="0 0 16 12"><path id="SvgjsPath2018" fill="#323232" stroke="#323232" stroke-width="2" d="M0,2 L14,6 L0,11 L0,2"/></marker></defs><rect id="SvgjsRect1686" width="944.719" height="1441.25" fill="#fff"/><g id="SvgjsG1687" transform="translate(51.2813638433517,695)"><path id="SvgjsPath1688" fill="none" stroke="rgba(50,50,50,1)" stroke-dasharray="10 6 3 6" stroke-width="2" d="M 0 0L 762.4517304189436 0L 762.4517304189436 571L 0 571Z"/></g><g id="SvgjsG1691" transform="translate(55.09375,133.6511839708561)"><path id="SvgjsPath1692" fill="#0c6" fill-opacity="1" stroke="rgba(50,50,50,1)" stroke-width="2" d="M 0 0L 119.81238615664824 0L 119.81238615664824 56.165755919854284L 0 56.165755919854284Z"/><g id="SvgjsG1693"><text id="SvgjsText1694" width="78" y="18.133" fill="#323232" align="middle" anchor="middle" family="微软雅黑" font-family="微软雅黑" font-size="13" font-weight="400" opacity="1" size="13" text-anchor="middle" transform="rotate(0)" weight="400"><tspan id="SvgjsTspan1695" x="60" dy="16"><tspan id="SvgjsTspan1696">添加下载任务</tspan></tspan></text></g></g><g id="SvgjsG1697"><path id="SvgjsPath1698" fill="none" stroke="#323232" stroke-width="2" marker-end="url(#SvgjsMarker1699)" d="M114.99994307832412 189.8169398907104L114.99994307832412 211.38205828779599L114.99994307832412 211.38205828779599L114.99994307832412 232.94717668488153"/></g><g id="SvgjsG1701" transform="translate(55.09375,232.94717668488153)"><path id="SvgjsPath1702" fill="#93f" fill-opacity="1" stroke="rgba(50,50,50,1)" stroke-width="2" d="M 0 0L 119.81238615664824 0L 119.81238615664824 56.165755919854284L 0 56.165755919854284Z"/><g id="SvgjsG1703"><text id="SvgjsText1704" width="85" y="10.133" fill="#fff" align="middle" anchor="middle" family="微软雅黑" font-family="微软雅黑" font-size="13" font-weight="400" opacity="1" size="13" text-anchor="middle" transform="rotate(0)" weight="400"><tspan id="SvgjsTspan1705" x="60" dy="16"><tspan id="SvgjsTspan1706">HTTP请求任务</tspan></tspan><tspan id="SvgjsTspan1707" x="60" dy="16"><tspan id="SvgjsTspan1708">M3U8URL</tspan></tspan></text></g></g><g id="SvgjsG1709"><path id="SvgjsPath1710" fill="none" stroke="#323232" stroke-width="2" marker-end="url(#SvgjsMarker1711)" d="M174.90613615664813 261.0300546448087L194.81991879174245 261.0300546448087L194.81991879174245 261.0300546448087L214.73370142683683 261.0300546448087"/></g><g id="SvgjsG1713" transform="translate(214.73370142683683,232.94717668488153)"><path id="SvgjsPath1714" fill="#fff" fill-opacity="1" stroke="rgba(50,50,50,1)" stroke-width="2" d="M 0 0L 119.81238615664824 0L 119.81238615664824 56.165755919854284L 0 56.165755919854284Z"/><g id="SvgjsG1715"><text id="SvgjsText1716" width="90" y="18.133" fill="#323232" align="middle" anchor="middle" family="微软雅黑" font-family="微软雅黑" font-size="13" font-weight="400" opacity="1" size="13" text-anchor="middle" transform="rotate(0)" weight="400"><tspan id="SvgjsTspan1717" x="60" dy="16"><tspan id="SvgjsTspan1718">解析M3U8片段</tspan></tspan></text></g></g><g id="SvgjsG1719" transform="translate(519.7540414389803,232.94717668488153)"><path id="SvgjsPath1720" fill="#fff" fill-opacity="1" stroke="rgba(50,50,50,1)" stroke-width="2" d="M 0 0L 119.81238615664824 0L 119.81238615664824 56.165755919854284L 0 56.165755919854284Z"/><g id="SvgjsG1721"><text id="SvgjsText1722" width="66" y="18.133" fill="#323232" align="middle" anchor="middle" family="微软雅黑" font-family="微软雅黑" font-size="13" font-weight="400" opacity="1" size="13" text-anchor="middle" transform="rotate(0)" weight="400"><tspan id="SvgjsTspan1723" x="60" dy="16"><tspan id="SvgjsTspan1724">加入UI列表</tspan></tspan></text></g></g><g id="SvgjsG1725" transform="translate(360.3751707650275,109.6511839708561)"><path id="SvgjsPath1726" fill="#fff" fill-opacity="1" stroke="rgba(50,50,50,1)" stroke-width="2" d="M 0 0L 119.81238615664824 0L 119.81238615664824 56.165755919854284L 0 56.165755919854284Z"/><g id="SvgjsG1727"><text id="SvgjsText1728" width="78" y="18.133" fill="#323232" align="middle" anchor="middle" family="微软雅黑" font-family="微软雅黑" font-size="13" font-weight="400" opacity="1" size="13" text-anchor="middle" transform="rotate(0)" weight="400"><tspan id="SvgjsTspan1729" x="60" dy="16"><tspan id="SvgjsTspan1730">添加点播任务</tspan></tspan></text></g></g><g id="SvgjsG1731" transform="translate(412.28136384335176,317.45264116575595)"><path id="SvgjsPath1732" fill="#39f" fill-opacity="1" stroke="rgba(255,255,255,1)" stroke-width="2" d="M 0 0L 119.81238615664824 0L 119.81238615664824 56.165755919854284L 0 56.165755919854284Z"/><g id="SvgjsG1733"><text id="SvgjsText1734" width="78" y="18.133" fill="#323232" align="middle" anchor="middle" family="微软雅黑" font-family="微软雅黑" font-size="13" font-weight="400" opacity="1" size="13" text-anchor="middle" transform="rotate(0)" weight="400"><tspan id="SvgjsTspan1735" x="60" dy="16"><tspan id="SvgjsTspan1736">下载片段模块</tspan></tspan></text></g></g><g id="SvgjsG1737" transform="translate(80.86788479052814,789)"><path id="SvgjsPath1738" fill="#063" fill-opacity="1" stroke="rgba(50,50,50,1)" stroke-width="2" d="M 0 0L 100 0L 100 70L 0 70Z"/><g id="SvgjsG1739"><text id="SvgjsText1740" width="78" y="25.05" fill="#fff" align="middle" anchor="middle" family="微软雅黑" font-family="微软雅黑" font-size="13" font-weight="400" opacity="1" size="13" text-anchor="middle" transform="rotate(0)" weight="400"><tspan id="SvgjsTspan1741" x="50" dy="16"><tspan id="SvgjsTspan1742">下载一个片段</tspan></tspan></text></g></g><g id="SvgjsG1743"><path id="SvgjsPath1744" fill="none" stroke="#323232" stroke-width="2" marker-end="url(#SvgjsMarker1745)" d="M480.1875569216759 137.73406193078324L540.0350068306013 137.73406193078324L540.0350068306013 137.73406193078324L599.8824567395269 137.73406193078324"/></g><g id="SvgjsG1747" transform="translate(599.8824567395269,109.6511839708561)"><path id="SvgjsPath1748" fill="#39f" fill-opacity="1" stroke="none" d="M 0 0L 119.81238615664824 0L 119.81238615664824 56.165755919854284L 0 56.165755919854284Z"/><g id="SvgjsG1749"><text id="SvgjsText1750" width="78" y="18.133" fill="#323232" align="middle" anchor="middle" family="微软雅黑" font-family="微软雅黑" font-size="13" font-weight="400" opacity="1" size="13" text-anchor="middle" transform="rotate(0)" weight="400"><tspan id="SvgjsTspan1751" x="60" dy="16"><tspan id="SvgjsTspan1752">下载片段模块</tspan></tspan></text></g></g><g id="SvgjsG1753"><path id="SvgjsPath1754" fill="none" stroke="#323232" stroke-width="2" marker-end="url(#SvgjsMarker1755)" d="M334.546087583485 261.0300546448087L353.3426874620522 261.0300546448087L353.3426874620522 261.0300546448087L372.1392873406194 261.0300546448087"/></g><g id="SvgjsG1757" transform="translate(372.1392873406194,228.9353369763205)"><path id="SvgjsPath1758" fill="#ffc" fill-opacity="1" stroke="rgba(50,50,50,1)" stroke-width="2" d="M 0 32.094717668488165L 48.14207650273224 0L 96.28415300546447 32.094717668488165L 48.14207650273224 64.18943533697633Z"/><g id="SvgjsG1759"><text id="SvgjsText1760" width="65" y="14.466" fill="#323232" align="middle" anchor="middle" family="微软雅黑" font-family="微软雅黑" font-size="13" font-weight="400" opacity="1" size="13" text-anchor="middle" transform="rotate(0)" weight="400"><tspan id="SvgjsTspan1761" x="48.5" dy="16"><tspan id="SvgjsTspan1762">是否为直播</tspan></tspan><tspan id="SvgjsTspan1763" x="48.5" dy="16"><tspan id="SvgjsTspan1764">源</tspan></tspan></text></g></g><g id="SvgjsG1765"><path id="SvgjsPath1766" fill="none" stroke="#323232" stroke-width="2" marker-end="url(#SvgjsMarker1767)" d="M468.4234403460837 261.0300546448087L472.1875569216759 261.0300546448087L472.1875569216759 317.45264116575595"/></g><g id="SvgjsG1769" transform="translate(412.28136384335176,393.3296903460838)"><path id="SvgjsPath1770" fill="#93f" fill-opacity="1" stroke="rgba(50,50,50,1)" stroke-width="2" d="M 0 0L 119.81238615664824 0L 119.81238615664824 56.165755919854284L 0 56.165755919854284Z"/><g id="SvgjsG1771"><text id="SvgjsText1772" width="85" y="10.133" fill="#fff" align="middle" anchor="middle" family="微软雅黑" font-family="微软雅黑" font-size="13" font-weight="400" opacity="1" size="13" text-anchor="middle" transform="rotate(0)" weight="400"><tspan id="SvgjsTspan1773" x="60" dy="16"><tspan id="SvgjsTspan1774">HTTP请求任务</tspan></tspan><tspan id="SvgjsTspan1775" x="60" dy="16"><tspan id="SvgjsTspan1776">M3U8URL</tspan></tspan></text></g></g><g id="SvgjsG1777"><path id="SvgjsPath1778" fill="none" stroke="#323232" stroke-width="2" marker-end="url(#SvgjsMarker1779)" d="M472.1875569216759 373.61839708561024L472.1875569216759 383.474043715847L472.187556921676 383.474043715847L472.187556921676 393.3296903460838"/></g><g id="SvgjsG1781" transform="translate(407.16342213114774,475.20673952641164)"><path id="SvgjsPath1782" fill="#ffc" fill-opacity="1" stroke="rgba(50,50,50,1)" stroke-width="2" d="M 0 26.044626593806925L 65.02413479052814 0L 130.04826958105627 26.044626593806925L 65.02413479052814 52.08925318761385Z"/><g id="SvgjsG1783"><text id="SvgjsText1784" width="78" y="16.355" fill="#323232" align="middle" anchor="middle" family="微软雅黑" font-family="微软雅黑" font-size="13" font-weight="400" opacity="1" size="13" text-anchor="middle" transform="rotate(0)" weight="400"><tspan id="SvgjsTspan1785" x="65.5" dy="16"><tspan id="SvgjsTspan1786">是否结束直播</tspan></tspan></text></g></g><g id="SvgjsG1787"><path id="SvgjsPath1788" fill="none" stroke="#323232" stroke-width="2" marker-end="url(#SvgjsMarker1789)" d="M472.187556921676 449.495446265938L472.187556921676 462.3510928961748L472.1875569216759 462.3510928961748L472.1875569216759 475.20673952641164"/></g><g id="SvgjsG1791"><path id="SvgjsPath1792" fill="none" stroke="#323232" stroke-width="2" marker-end="url(#SvgjsMarker1793)" d="M468.4234403460837 261.0300546448087L494.088740892532 261.0300546448087L494.088740892532 261.0300546448087L519.7540414389803 261.0300546448087"/></g><g id="SvgjsG1795"><path id="SvgjsPath1796" fill="none" stroke="#323232" stroke-width="2" marker-end="url(#SvgjsMarker1797)" d="M420.2813638433516 228.9353369763205L420.2813638433516 197.37613843351545L420.28136384335176 197.37613843351545L420.28136384335176 165.8169398907104"/><rect id="SvgjsRect1799" width="11" height="16" x="414.781" y="189.376" fill="#fff"/><text id="SvgjsText1800" width="11" y="187.426" fill="#323232" align="top" anchor="middle" family="微软雅黑" font-family="微软雅黑" font-size="13" font-weight="400" opacity="1" size="13" text-anchor="middle" transform="rotate(0)" weight="400"><tspan id="SvgjsTspan1801" x="420.281" dy="16"><tspan id="SvgjsTspan1802">N</tspan></tspan></text></g><g id="SvgjsG1803"><path id="SvgjsPath1804" fill="none" stroke="#323232" stroke-width="2" marker-end="url(#SvgjsMarker1805)" d="M472.1875569216759 527.2959927140255L472.1875569216759 540.2017304189435L472.187556921676 540.2017304189435L472.187556921676 553.1074681238615"/></g><g id="SvgjsG1807" transform="translate(412.28136384335176,553.1074681238615)"><path id="SvgjsPath1808" fill="#3f9" fill-opacity="1" stroke="rgba(255,255,255,1)" stroke-width="2" d="M 0 0L 119.81238615664824 0L 119.81238615664824 56.165755919854284L 0 56.165755919854284Z"/><g id="SvgjsG1809"><text id="SvgjsText1810" width="65" y="18.133" fill="#000" align="middle" anchor="middle" family="微软雅黑" font-family="微软雅黑" font-size="13" font-weight="400" opacity="1" size="13" text-anchor="middle" transform="rotate(0)" weight="400"><tspan id="SvgjsTspan1811" x="60" dy="16"><tspan id="SvgjsTspan1812">置任务完成</tspan></tspan></text></g></g><g id="SvgjsG1813" transform="translate(693.920708105647,232.94717668488153)"><path id="SvgjsPath1814" fill="#fff" fill-opacity="1" stroke="rgba(50,50,50,1)" stroke-width="2" d="M 0 0L 119.81238615664824 0L 119.81238615664824 56.165755919854284L 0 56.165755919854284Z"/><g id="SvgjsG1815"><text id="SvgjsText1816" width="91" y="18.133" fill="#323232" align="middle" anchor="middle" family="微软雅黑" font-family="微软雅黑" font-size="13" font-weight="400" opacity="1" size="13" text-anchor="middle" transform="rotate(0)" weight="400"><tspan id="SvgjsTspan1817" x="60" dy="16"><tspan id="SvgjsTspan1818">等片段下载完成</tspan></tspan></text></g></g><g id="SvgjsG1819"><path id="SvgjsPath1820" fill="none" stroke="#323232" stroke-width="2" marker-end="url(#SvgjsMarker1821)" d="M639.5664275956286 261.0300546448087L666.7435678506379 261.0300546448087L666.7435678506379 261.0300546448087L693.920708105647 261.0300546448087"/></g><g id="SvgjsG1823"><path id="SvgjsPath1824" fill="none" stroke="#323232" stroke-width="2" marker-end="url(#SvgjsMarker1825)" d="M813.7330942622954 261.0300546448087L860.6392873406194 261.0300546448087L860.6392873406194 337.1639344262295"/></g><g id="SvgjsG1827" transform="translate(800.7330942622953,337.1639344262295)"><path id="SvgjsPath1828" fill="#3f9" fill-opacity="1" stroke="rgba(255,255,255,1)" stroke-width="2" d="M 0 0L 119.81238615664824 0L 119.81238615664824 56.165755919854284L 0 56.165755919854284Z"/><g id="SvgjsG1829"><text id="SvgjsText1830" width="52" y="18.133" fill="#000" align="middle" anchor="middle" family="微软雅黑" font-family="微软雅黑" font-size="13" font-weight="400" opacity="1" size="13" text-anchor="middle" transform="rotate(0)" weight="400"><tspan id="SvgjsTspan1831" x="60" dy="16"><tspan id="SvgjsTspan1832">播放视频</tspan></tspan></text></g></g><g id="SvgjsG1833"><path id="SvgjsPath1834" fill="none" stroke="#323232" stroke-width="2" marker-end="url(#SvgjsMarker1835)" d="M532.09375 581.1903460837887L753.8269011839712 581.1903460837887L753.8269011839712 289.1129326047358"/></g><g id="SvgjsG1837"><path id="SvgjsPath1838" fill="none" stroke="#323232" stroke-width="2" marker-end="url(#SvgjsMarker1839)" d="M719.6948428961751 137.73406193078324L753.8269011839712 137.73406193078324L753.8269011839712 232.94717668488153"/></g><g id="SvgjsG1841"><path id="SvgjsPath1842" fill="none" stroke="#323232" stroke-width="2" marker-end="url(#SvgjsMarker1843)" d="M180.86788479052814 824L218.86788479052814 824L218.86788479052814 824L256.86788479052814 824"/></g><g id="SvgjsG1845" transform="translate(256.86788479052814,784)"><path id="SvgjsPath1846" fill="#ffc" fill-opacity="1" stroke="rgba(50,50,50,1)" stroke-width="2" d="M 0 40L 60 0L 120 40L 60 80Z"/><g id="SvgjsG1847"><text id="SvgjsText1848" width="91" y="30.45" fill="#323232" align="middle" anchor="middle" family="微软雅黑" font-family="微软雅黑" font-size="13" font-weight="400" opacity="1" size="13" text-anchor="middle" transform="rotate(0)" weight="400"><tspan id="SvgjsTspan1849" x="60" dy="16"><tspan id="SvgjsTspan1850">是否为加密视频</tspan></tspan></text></g></g><g id="SvgjsG1851"><path id="SvgjsPath1852" fill="none" stroke="#323232" stroke-width="2" marker-end="url(#SvgjsMarker1853)" d="M316.86788479052814 864L316.86788479052814 890.5L316.86788479052814 890.5L316.86788479052814 917"/><rect id="SvgjsRect1855" width="11" height="16" x="311.368" y="882.5" fill="#fff"/><text id="SvgjsText1856" width="11" y="880.55" fill="#323232" align="top" anchor="middle" family="微软雅黑" font-family="微软雅黑" font-size="13" font-weight="400" opacity="1" size="13" text-anchor="middle" transform="rotate(0)" weight="400"><tspan id="SvgjsTspan1857" x="316.868" dy="16"><tspan id="SvgjsTspan1858">N</tspan></tspan></text></g><g id="SvgjsG1859" transform="translate(266.86788479052814,917)"><path id="SvgjsPath1860" fill="#93f" fill-opacity="1" stroke="rgba(50,50,50,1)" stroke-width="2" d="M 0 0L 100 0L 100 70L 0 70Z"/><g id="SvgjsG1861"><text id="SvgjsText1862" width="54" y="25.05" fill="#fff" align="middle" anchor="middle" family="微软雅黑" font-family="微软雅黑" font-size="13" font-weight="400" opacity="1" size="13" text-anchor="middle" transform="rotate(0)" weight="400"><tspan id="SvgjsTspan1863" x="50" dy="16"><tspan id="SvgjsTspan1864">下载TS流</tspan></tspan></text></g></g><g id="SvgjsG1865"><path id="SvgjsPath1866" fill="none" stroke="#323232" stroke-width="2" marker-end="url(#SvgjsMarker1867)" d="M376.86788479052814 824L410.86788479052814 824L410.86788479052814 824L444.86788479052814 824"/><rect id="SvgjsRect1869" width="8" height="16" x="406.868" y="816" fill="#fff"/><text id="SvgjsText1870" width="8" y="814.05" fill="#323232" align="top" anchor="middle" family="微软雅黑" font-family="微软雅黑" font-size="13" font-weight="400" opacity="1" size="13" text-anchor="middle" transform="rotate(0)" weight="400"><tspan id="SvgjsTspan1871" x="410.868" dy="16"><tspan id="SvgjsTspan1872">Y</tspan></tspan></text></g><g id="SvgjsG1873" transform="translate(445.5281762295084,789)"><path id="SvgjsPath1874" fill="#fff" fill-opacity="1" stroke="rgba(50,50,50,1)" stroke-width="2" d="M 0 0L 100 0L 100 70L 0 70Z"/><g id="SvgjsG1875"><text id="SvgjsText1876" width="75" y="17.05" fill="#323232" align="middle" anchor="middle" family="微软雅黑" font-family="微软雅黑" font-size="13" font-weight="400" opacity="1" size="13" text-anchor="middle" transform="rotate(0)" weight="400"><tspan id="SvgjsTspan1877" x="50" dy="16"><tspan id="SvgjsTspan1878">请求AESKEY</tspan></tspan><tspan id="SvgjsTspan1879" x="50" dy="16"><tspan id="SvgjsTspan1880">缓存KEY文件</tspan></tspan></text></g></g><g id="SvgjsG1881"><path id="SvgjsPath1882" fill="none" stroke="#323232" stroke-width="2" marker-end="url(#SvgjsMarker1883)" d="M545.5281762295084 824L582.1980305100183 824L582.1980305100183 824L618.8678847905281 824"/></g><g id="SvgjsG1885" transform="translate(619.6948428961751,789)"><path id="SvgjsPath1886" fill="#93f" fill-opacity="1" stroke="rgba(50,50,50,1)" stroke-width="2" d="M 0 0L 100 0L 100 70L 0 70Z"/><g id="SvgjsG1887"><text id="SvgjsText1888" width="54" y="25.05" fill="#fff" align="middle" anchor="middle" family="微软雅黑" font-family="微软雅黑" font-size="13" font-weight="400" opacity="1" size="13" text-anchor="middle" transform="rotate(0)" weight="400"><tspan id="SvgjsTspan1889" x="50" dy="16"><tspan id="SvgjsTspan1890">下载TS流</tspan></tspan></text></g></g><g id="SvgjsG1891"><path id="SvgjsPath1892" fill="none" stroke="#323232" stroke-width="2" marker-end="url(#SvgjsMarker1893)" d="M316.86788479052814 987L316.86788479052814 1015.5L316.86788479052814 1015.5L316.86788479052814 1044"/></g><g id="SvgjsG1895" transform="translate(256.86788479052814,1044)"><path id="SvgjsPath1896" fill="#ffc" fill-opacity="1" stroke="rgba(50,50,50,1)" stroke-width="2" d="M 0 40L 60 0L 120 40L 60 80Z"/><g id="SvgjsG1897"><text id="SvgjsText1898" width="78" y="30.45" fill="#323232" align="middle" anchor="middle" family="微软雅黑" font-family="微软雅黑" font-size="13" font-weight="400" opacity="1" size="13" text-anchor="middle" transform="rotate(0)" weight="400"><tspan id="SvgjsTspan1899" x="60" dy="16"><tspan id="SvgjsTspan1900">是否下载成功</tspan></tspan></text></g></g><g id="SvgjsG1901"><path id="SvgjsPath1902" fill="none" stroke="#323232" stroke-width="2" marker-end="url(#SvgjsMarker1903)" d="M256.86788479052814 1084L130.86788479052814 1084L130.86788479052814 859"/><rect id="SvgjsRect1905" width="11" height="16" x="125.368" y="1026.5" fill="#fff"/><text id="SvgjsText1906" width="11" y="1024.55" fill="#323232" align="top" anchor="middle" family="微软雅黑" font-family="微软雅黑" font-size="13" font-weight="400" opacity="1" size="13" text-anchor="middle" transform="rotate(0)" weight="400"><tspan id="SvgjsTspan1907" x="130.868" dy="16"><tspan id="SvgjsTspan1908">N</tspan></tspan></text></g><g id="SvgjsG1909"><path id="SvgjsPath1910" fill="none" stroke="#323232" stroke-width="2" marker-end="url(#SvgjsMarker1911)" d="M669.6948428961751 859L669.6948428961751 888L669.6948428961751 888L669.6948428961751 917"/></g><g id="SvgjsG1913" transform="translate(609.6948428961751,917)"><path id="SvgjsPath1914" fill="#ffc" fill-opacity="1" stroke="rgba(50,50,50,1)" stroke-width="2" d="M 0 40L 60 0L 120 40L 60 80Z"/><g id="SvgjsG1915"><text id="SvgjsText1916" width="78" y="30.45" fill="#323232" align="middle" anchor="middle" family="微软雅黑" font-family="微软雅黑" font-size="13" font-weight="400" opacity="1" size="13" text-anchor="middle" transform="rotate(0)" weight="400"><tspan id="SvgjsTspan1917" x="60" dy="16"><tspan id="SvgjsTspan1918">是否下载成功</tspan></tspan></text></g></g><g id="SvgjsG1919"><path id="SvgjsPath1920" fill="none" stroke="#323232" stroke-width="2" marker-end="url(#SvgjsMarker1921)" d="M669.6948428961751 997L669.6948428961751 1020.5L669.6948428961751 1020.5L669.6948428961751 1044"/></g><g id="SvgjsG1923" transform="translate(619.6948428961751,1044)"><path id="SvgjsPath1924" fill="#fff" fill-opacity="1" stroke="rgba(50,50,50,1)" stroke-width="2" d="M 0 0L 100 0L 100 70L 0 70Z"/><g id="SvgjsG1925"><text id="SvgjsText1926" width="50" y="25.05" fill="#323232" align="middle" anchor="middle" family="微软雅黑" font-family="微软雅黑" font-size="13" font-weight="400" opacity="1" size="13" text-anchor="middle" transform="rotate(0)" weight="400"><tspan id="SvgjsTspan1927" x="50" dy="16"><tspan id="SvgjsTspan1928">AES解密</tspan></tspan></text></g></g><g id="SvgjsG1929"><path id="SvgjsPath1930" fill="none" stroke="#323232" stroke-width="2" marker-end="url(#SvgjsMarker1931)" d="M669.6948428961751 1114L669.6948428961751 1209L557.9616917122039 1209"/></g><g id="SvgjsG1933" transform="translate(437.961691712204,1169)"><path id="SvgjsPath1934" fill="#ffc" fill-opacity="1" stroke="rgba(50,50,50,1)" stroke-width="2" d="M 0 40L 60 0L 120 40L 60 80Z"/><g id="SvgjsG1935"><text id="SvgjsText1936" width="78" y="30.45" fill="#323232" align="middle" anchor="middle" family="微软雅黑" font-family="微软雅黑" font-size="13" font-weight="400" opacity="1" size="13" text-anchor="middle" transform="rotate(0)" weight="400"><tspan id="SvgjsTspan1937" x="60" dy="16"><tspan id="SvgjsTspan1938">是否解密成功</tspan></tspan></text></g></g><g id="SvgjsG1939"><path id="SvgjsPath1940" fill="none" stroke="#323232" stroke-width="2" marker-end="url(#SvgjsMarker1941)" d="M437.961691712204 1209L402.4147882513661 1209L402.4147882513661 1209L366.86788479052814 1209"/></g><g id="SvgjsG1943" transform="translate(266.86788479052814,1174)"><path id="SvgjsPath1944" fill="#3f9" fill-opacity="1" stroke="rgba(255,255,255,1)" stroke-width="2" d="M 0 0L 100 0L 100 70L 0 70Z"/><g id="SvgjsG1945"><text id="SvgjsText1946" width="65" y="25.05" fill="#000" align="middle" anchor="middle" family="微软雅黑" font-family="微软雅黑" font-size="13" font-weight="400" opacity="1" size="13" text-anchor="middle" transform="rotate(0)" weight="400"><tspan id="SvgjsTspan1947" x="50" dy="16"><tspan id="SvgjsTspan1948">成功，落盘</tspan></tspan></text></g></g><g id="SvgjsG1949"><path id="SvgjsPath1950" fill="none" stroke="#323232" stroke-width="2" marker-end="url(#SvgjsMarker1951)" d="M316.86788479052814 1124L316.86788479052814 1149L316.86788479052814 1149L316.86788479052814 1174"/><rect id="SvgjsRect1953" width="8" height="16" x="312.868" y="1141" fill="#fff"/><text id="SvgjsText1954" width="8" y="1139.05" fill="#323232" align="top" anchor="middle" family="微软雅黑" font-family="微软雅黑" font-size="13" font-weight="400" opacity="1" size="13" text-anchor="middle" transform="rotate(0)" weight="400"><tspan id="SvgjsTspan1955" x="316.868" dy="16"><tspan id="SvgjsTspan1956">Y</tspan></tspan></text></g><g id="SvgjsG1957"><path id="SvgjsPath1958" fill="none" stroke="#323232" stroke-width="2" marker-end="url(#SvgjsMarker1959)" d="M729.6948428961751 957L759.6948428961751 957L759.6948428961751 759L130.86788479052814 759L130.86788479052814 789"/><rect id="SvgjsRect1961" width="11" height="16" x="538.781" y="751" fill="#fff"/><text id="SvgjsText1962" width="11" y="749.05" fill="#323232" align="top" anchor="middle" family="微软雅黑" font-family="微软雅黑" font-size="13" font-weight="400" opacity="1" size="13" text-anchor="middle" transform="rotate(0)" weight="400"><tspan id="SvgjsTspan1963" x="544.281" dy="16"><tspan id="SvgjsTspan1964">N</tspan></tspan></text></g><g id="SvgjsG1965" transform="translate(323.87517076502746,703)"><path id="SvgjsPath1966" fill="none" stroke="none" d="M 0 0L 192.81238615664836 0L 192.81238615664836 43L 0 43Z"/><g id="SvgjsG1967"><text id="SvgjsText1968" width="144" y="2.9" fill="#39f" align="middle" anchor="middle" family="微软雅黑" font-family="微软雅黑" font-size="24" font-weight="700" opacity="1" size="24" text-anchor="middle" transform="rotate(0)" weight="700"><tspan id="SvgjsTspan1969" x="96.5" dy="30"><tspan id="SvgjsTspan1970">下载片段模块</tspan></tspan></text></g></g><g id="SvgjsG1971"><path id="SvgjsPath1972" fill="none" stroke="#00f" stroke-dasharray="3 3" stroke-width="2" marker-end="url(#SvgjsMarker1973)" d="M412.28136384335176 345.5355191256831L382.28136384335176 345.5355191256831L382.28136384335176 665L432.5072290528235 665L432.5072290528235 695"/></g><g id="SvgjsG1975"><path id="SvgjsPath1976" fill="none" stroke="#00f" stroke-dasharray="3 3" stroke-width="2" marker-end="url(#SvgjsMarker1977)" d="M659.788649817851 165.8169398907104L659.788649817851 636.4084699453551L432.5072290528235 636.4084699453551L432.5072290528235 695"/></g><g id="SvgjsG1979"><path id="SvgjsPath1980" fill="none" stroke="#323232" stroke-width="2" marker-end="url(#SvgjsMarker1981)" d="M497.961691712204 1169L497.961691712204 1141.5L497.961691712204 1141.5L497.961691712204 1114"/><rect id="SvgjsRect1983" width="11" height="16" x="492.462" y="1133.5" fill="#fff"/><text id="SvgjsText1984" width="11" y="1131.55" fill="#323232" align="top" anchor="middle" family="微软雅黑" font-family="微软雅黑" font-size="13" font-weight="400" opacity="1" size="13" text-anchor="middle" transform="rotate(0)" weight="400"><tspan id="SvgjsTspan1985" x="497.962" dy="16"><tspan id="SvgjsTspan1986">N</tspan></tspan></text></g><g id="SvgjsG1987" transform="translate(447.961691712204,1044)"><path id="SvgjsPath1988" fill="#900" fill-opacity="1" stroke="rgba(50,50,50,1)" stroke-width="2" d="M 0 0L 100 0L 100 70L 0 70Z"/><g id="SvgjsG1989"><text id="SvgjsText1990" width="78" y="17.05" fill="#fff" align="middle" anchor="middle" family="微软雅黑" font-family="微软雅黑" font-size="13" font-weight="400" opacity="1" size="13" text-anchor="middle" transform="rotate(0)" weight="400"><tspan id="SvgjsTspan1991" x="50" dy="16"><tspan id="SvgjsTspan1992">通知用户，视</tspan></tspan><tspan id="SvgjsTspan1993" x="50" dy="16"><tspan id="SvgjsTspan1994">频源不支持</tspan></tspan></text></g></g><g id="SvgjsG1995" transform="translate(25.007229052823504,25)"><path id="SvgjsPath1996" fill="none" stroke="none" d="M 0 0L 815 0L 815 63L 0 63Z"/><g id="SvgjsG1997"><text id="SvgjsText1998" width="769" y="-5.7" fill="#66b2ff" align="middle" anchor="middle" family="微软雅黑" font-family="微软雅黑" font-size="48" font-weight="400" opacity="1" size="48" text-anchor="middle" transform="rotate(0)" weight="400"><tspan id="SvgjsTspan1999" x="407.5" dy="60"><tspan id="SvgjsTspan2000">M3U8-DOWNLOADER 流程原理图</tspan></tspan></text></g></g><g id="SvgjsG2001" transform="translate(182.3246243169399,1309)"><path id="SvgjsPath2002" fill="none" stroke="none" d="M 0 0L 500.3652094717672 0L 500.3652094717672 70L 0 70Z"/><g id="SvgjsG2003"><text id="SvgjsText2004" width="334" y="9.05" fill="#007fff" align="middle" anchor="middle" family="微软雅黑" font-family="微软雅黑" font-size="13" font-weight="700" opacity="1" size="13" text-anchor="middle" transform="rotate(0)" weight="700"><tspan id="SvgjsTspan2005" x="250.5" dy="16"><tspan id="SvgjsTspan2006">By HeiSir QQ:1586462</tspan></tspan><tspan id="SvgjsTspan2007" x="250.5" dy="16"><tspan id="SvgjsTspan2008"> </tspan></tspan><tspan id="SvgjsTspan2009" x="250.5" dy="16"><tspan id="SvgjsTspan2010">https://github.com/HeiSir2014/M3U8-Downloader</tspan></tspan></text></g></g><g id="SvgjsG2011" transform="translate(678.0769011839711,1276.25)"><path id="SvgjsPath2012" fill="url(#SvgjsPattern2013)" stroke="none" d="M 0 0L 140.01684881602887 0L 140.01684881602887 140.01684881602887L 0 140.01684881602887Z"/></g><g id="SvgjsG2015"><path id="SvgjsPath2016" fill="none" stroke="#323232" stroke-width="2" marker-end="url(#SvgjsMarker2017)" d="M407.16342213114774 501.25136612021856L342.16342213114774 501.25136612021856L342.16342213114774 300.45264116575595L472.1875569216759 300.45264116575595L472.1875569216759 317.45264116575595"/><rect id="SvgjsRect2019" width="11" height="16" x="336.663" y="351.84" fill="#fff"/><text id="SvgjsText2020" width="11" y="349.89" fill="#323232" align="top" anchor="middle" family="微软雅黑" font-family="微软雅黑" font-size="13" font-weight="400" opacity="1" size="13" text-anchor="middle" transform="rotate(0)" weight="400"><tspan id="SvgjsTspan2021" x="342.163" dy="16"><tspan id="SvgjsTspan2022">N</tspan></tspan></text></g></svg>